<svg xmlns="http://www.w3.org/2000/svg" xmlns:xlink="http://www.w3.org/1999/xlink" width="186" height="182" viewBox="0 0 186 182">
  <defs>
    <clipPath id="clip-path">
      <rect width="182" height="186" fill="none"/>
    </clipPath>
  </defs>
  <g id="Cuadrícula_de_repetición_20" data-name="Cuadrícula de repetición 20" transform="translate(186) rotate(90)" opacity="0.55" clip-path="url(#clip-path)">
    <g transform="translate(-638 -164)">
      <circle id="Elipse_1" data-name="Elipse 1" cx="2" cy="2" r="2" transform="translate(639 164)" fill="#54b9d1"/>
    </g>
    <g transform="translate(-606 -164)">
      <circle id="Elipse_1-2" data-name="Elipse 1" cx="2" cy="2" r="2" transform="translate(639 164)" fill="#54b9d1"/>
    </g>
    <g transform="translate(-574 -164)">
      <circle id="Elipse_1-3" data-name="Elipse 1" cx="2" cy="2" r="2" transform="translate(639 164)" fill="#54b9d1"/>
    </g>
    <g transform="translate(-542 -164)">
      <circle id="Elipse_1-4" data-name="Elipse 1" cx="2" cy="2" r="2" transform="translate(639 164)" fill="#54b9d1"/>
    </g>
    <g transform="translate(-510 -164)">
      <circle id="Elipse_1-5" data-name="Elipse 1" cx="2" cy="2" r="2" transform="translate(639 164)" fill="#54b9d1"/>
    </g>
    <g transform="translate(-478 -164)">
      <circle id="Elipse_1-6" data-name="Elipse 1" cx="2" cy="2" r="2" transform="translate(639 164)" fill="#54b9d1"/>
    </g>
    <g transform="translate(-638 -135)">
      <circle id="Elipse_1-7" data-name="Elipse 1" cx="2" cy="2" r="2" transform="translate(639 164)" fill="#54b9d1"/>
    </g>
    <g transform="translate(-606 -135)">
      <circle id="Elipse_1-8" data-name="Elipse 1" cx="2" cy="2" r="2" transform="translate(639 164)" fill="#54b9d1"/>
    </g>
    <g transform="translate(-574 -135)">
      <circle id="Elipse_1-9" data-name="Elipse 1" cx="2" cy="2" r="2" transform="translate(639 164)" fill="#54b9d1"/>
    </g>
    <g transform="translate(-542 -135)">
      <circle id="Elipse_1-10" data-name="Elipse 1" cx="2" cy="2" r="2" transform="translate(639 164)" fill="#54b9d1"/>
    </g>
    <g transform="translate(-510 -135)">
      <circle id="Elipse_1-11" data-name="Elipse 1" cx="2" cy="2" r="2" transform="translate(639 164)" fill="#54b9d1"/>
    </g>
    <g transform="translate(-478 -135)">
      <circle id="Elipse_1-12" data-name="Elipse 1" cx="2" cy="2" r="2" transform="translate(639 164)" fill="#54b9d1"/>
    </g>
    <g transform="translate(-638 -106)">
      <circle id="Elipse_1-13" data-name="Elipse 1" cx="2" cy="2" r="2" transform="translate(639 164)" fill="#54b9d1"/>
    </g>
    <g transform="translate(-606 -106)">
      <circle id="Elipse_1-14" data-name="Elipse 1" cx="2" cy="2" r="2" transform="translate(639 164)" fill="#54b9d1"/>
    </g>
    <g transform="translate(-574 -106)">
      <circle id="Elipse_1-15" data-name="Elipse 1" cx="2" cy="2" r="2" transform="translate(639 164)" fill="#54b9d1"/>
    </g>
    <g transform="translate(-542 -106)">
      <circle id="Elipse_1-16" data-name="Elipse 1" cx="2" cy="2" r="2" transform="translate(639 164)" fill="#54b9d1"/>
    </g>
    <g transform="translate(-510 -106)">
      <circle id="Elipse_1-17" data-name="Elipse 1" cx="2" cy="2" r="2" transform="translate(639 164)" fill="#54b9d1"/>
    </g>
    <g transform="translate(-478 -106)">
      <circle id="Elipse_1-18" data-name="Elipse 1" cx="2" cy="2" r="2" transform="translate(639 164)" fill="#54b9d1"/>
    </g>
    <g transform="translate(-638 -77)">
      <circle id="Elipse_1-19" data-name="Elipse 1" cx="2" cy="2" r="2" transform="translate(639 164)" fill="#54b9d1"/>
    </g>
    <g transform="translate(-606 -77)">
      <circle id="Elipse_1-20" data-name="Elipse 1" cx="2" cy="2" r="2" transform="translate(639 164)" fill="#54b9d1"/>
    </g>
    <g transform="translate(-574 -77)">
      <circle id="Elipse_1-21" data-name="Elipse 1" cx="2" cy="2" r="2" transform="translate(639 164)" fill="#54b9d1"/>
    </g>
    <g transform="translate(-542 -77)">
      <circle id="Elipse_1-22" data-name="Elipse 1" cx="2" cy="2" r="2" transform="translate(639 164)" fill="#54b9d1"/>
    </g>
    <g transform="translate(-510 -77)">
      <circle id="Elipse_1-23" data-name="Elipse 1" cx="2" cy="2" r="2" transform="translate(639 164)" fill="#54b9d1"/>
    </g>
    <g transform="translate(-478 -77)">
      <circle id="Elipse_1-24" data-name="Elipse 1" cx="2" cy="2" r="2" transform="translate(639 164)" fill="#54b9d1"/>
    </g>
    <g transform="translate(-638 -48)">
      <circle id="Elipse_1-25" data-name="Elipse 1" cx="2" cy="2" r="2" transform="translate(639 164)" fill="#54b9d1"/>
    </g>
    <g transform="translate(-606 -48)">
      <circle id="Elipse_1-26" data-name="Elipse 1" cx="2" cy="2" r="2" transform="translate(639 164)" fill="#54b9d1"/>
    </g>
    <g transform="translate(-574 -48)">
      <circle id="Elipse_1-27" data-name="Elipse 1" cx="2" cy="2" r="2" transform="translate(639 164)" fill="#54b9d1"/>
    </g>
    <g transform="translate(-542 -48)">
      <circle id="Elipse_1-28" data-name="Elipse 1" cx="2" cy="2" r="2" transform="translate(639 164)" fill="#54b9d1"/>
    </g>
    <g transform="translate(-510 -48)">
      <circle id="Elipse_1-29" data-name="Elipse 1" cx="2" cy="2" r="2" transform="translate(639 164)" fill="#54b9d1"/>
    </g>
    <g transform="translate(-478 -48)">
      <circle id="Elipse_1-30" data-name="Elipse 1" cx="2" cy="2" r="2" transform="translate(639 164)" fill="#54b9d1"/>
    </g>
    <g transform="translate(-638 -19)">
      <circle id="Elipse_1-31" data-name="Elipse 1" cx="2" cy="2" r="2" transform="translate(639 164)" fill="#54b9d1"/>
    </g>
    <g transform="translate(-606 -19)">
      <circle id="Elipse_1-32" data-name="Elipse 1" cx="2" cy="2" r="2" transform="translate(639 164)" fill="#54b9d1"/>
    </g>
    <g transform="translate(-574 -19)">
      <circle id="Elipse_1-33" data-name="Elipse 1" cx="2" cy="2" r="2" transform="translate(639 164)" fill="#54b9d1"/>
    </g>
    <g transform="translate(-542 -19)">
      <circle id="Elipse_1-34" data-name="Elipse 1" cx="2" cy="2" r="2" transform="translate(639 164)" fill="#54b9d1"/>
    </g>
    <g transform="translate(-510 -19)">
      <circle id="Elipse_1-35" data-name="Elipse 1" cx="2" cy="2" r="2" transform="translate(639 164)" fill="#54b9d1"/>
    </g>
    <g transform="translate(-478 -19)">
      <circle id="Elipse_1-36" data-name="Elipse 1" cx="2" cy="2" r="2" transform="translate(639 164)" fill="#54b9d1"/>
    </g>
    <g transform="translate(-638 10)">
      <circle id="Elipse_1-37" data-name="Elipse 1" cx="2" cy="2" r="2" transform="translate(639 164)" fill="#54b9d1"/>
    </g>
    <g transform="translate(-606 10)">
      <circle id="Elipse_1-38" data-name="Elipse 1" cx="2" cy="2" r="2" transform="translate(639 164)" fill="#54b9d1"/>
    </g>
    <g transform="translate(-574 10)">
      <circle id="Elipse_1-39" data-name="Elipse 1" cx="2" cy="2" r="2" transform="translate(639 164)" fill="#54b9d1"/>
    </g>
    <g transform="translate(-542 10)">
      <circle id="Elipse_1-40" data-name="Elipse 1" cx="2" cy="2" r="2" transform="translate(639 164)" fill="#54b9d1"/>
    </g>
    <g transform="translate(-510 10)">
      <circle id="Elipse_1-41" data-name="Elipse 1" cx="2" cy="2" r="2" transform="translate(639 164)" fill="#54b9d1"/>
    </g>
    <g transform="translate(-478 10)">
      <circle id="Elipse_1-42" data-name="Elipse 1" cx="2" cy="2" r="2" transform="translate(639 164)" fill="#54b9d1"/>
    </g>
  </g>
</svg>
