<svg xmlns="http://www.w3.org/2000/svg" width="43.75" height="50" viewBox="0 0 43.75 50">
  <path id="user-doctor-solid" d="M21.875,25a12.5,12.5,0,1,1,12.5-12.5A12.5,12.5,0,0,1,21.875,25Zm9.375,5.391A17.416,17.416,0,0,1,43.75,47.1a2.9,2.9,0,0,1-2.9,2.9H2.9A2.9,2.9,0,0,1,0,47.1,17.416,17.416,0,0,1,12.5,30.391v4.961a6.256,6.256,0,0,0-4.687,6.055v3.906a1.567,1.567,0,0,0,1.563,1.563h1.563a1.563,1.563,0,0,0,0-3.125V41.406a3.125,3.125,0,1,1,6.25,0V43.75a1.563,1.563,0,0,0,0,3.125H18.75a1.567,1.567,0,0,0,1.563-1.562V41.406a6.256,6.256,0,0,0-4.687-6.055V29.775q.879-.088,1.787-.088h8.926q.908,0,1.787.088v6.387a5.469,5.469,0,1,0,3.125,0ZM29.688,43.75a2.344,2.344,0,1,1,2.344-2.344A2.338,2.338,0,0,1,29.688,43.75Z" fill="#00bcd4"/>
</svg>
