<svg xmlns="http://www.w3.org/2000/svg" width="50" height="50" viewBox="0 0 50 50">
  <path id="certificate-solid" d="M20.565.676A2.343,2.343,0,0,0,16.611,1.73l-1.543,6.1L9.014,6.124a2.339,2.339,0,0,0-2.89,2.89l1.709,6.054-6.1,1.552A2.357,2.357,0,0,0,.041,18.29a2.3,2.3,0,0,0,.635,2.275l4.511,4.394L.676,29.353A2.343,2.343,0,0,0,1.73,33.307l6.1,1.543L6.124,40.9a2.339,2.339,0,0,0,2.89,2.89l6.054-1.709,1.543,6.1a2.35,2.35,0,0,0,3.954,1.064l4.394-4.511,4.394,4.511a2.336,2.336,0,0,0,2.285.625,2.373,2.373,0,0,0,1.67-1.689l1.543-6.1L40.9,43.794a2.339,2.339,0,0,0,2.89-2.89L42.085,34.85l6.1-1.543a2.35,2.35,0,0,0,1.064-3.954l-4.511-4.394,4.511-4.394a2.336,2.336,0,0,0,.625-2.285,2.373,2.373,0,0,0-1.689-1.67l-6.1-1.543,1.709-6.054a2.339,2.339,0,0,0-2.89-2.89L34.85,7.833,33.3,1.73A2.357,2.357,0,0,0,31.628.041a2.3,2.3,0,0,0-2.275.635L24.959,5.187Z" transform="translate(0.041 0.041)" fill="#00bcd4"/>
</svg>
