<svg xmlns="http://www.w3.org/2000/svg" width="50" height="44.444" viewBox="0 0 50 44.444">
  <path id="hospital-user-solid" d="M4.167,0A4.168,4.168,0,0,0,0,4.167V22.222H12.5A1.389,1.389,0,0,1,12.5,25H0v5.556H12.5a1.389,1.389,0,0,1,0,2.778H0v6.944a4.168,4.168,0,0,0,4.167,4.167H23.082a5.771,5.771,0,0,1-.859-3.047,10.854,10.854,0,0,1,5.556-9.479V4.167A4.168,4.168,0,0,0,23.611,0Zm9.028,5.556h1.389a1.393,1.393,0,0,1,1.389,1.389V9.028h2.083a1.393,1.393,0,0,1,1.389,1.389v1.389a1.393,1.393,0,0,1-1.389,1.389H15.972v2.083a1.393,1.393,0,0,1-1.389,1.389H13.194a1.393,1.393,0,0,1-1.389-1.389V13.194H9.722a1.393,1.393,0,0,1-1.389-1.389V10.417A1.393,1.393,0,0,1,9.722,9.028h2.083V6.944A1.393,1.393,0,0,1,13.194,5.556Zm31.25,18.056A6.944,6.944,0,1,0,37.5,30.556,6.943,6.943,0,0,0,44.444,23.611ZM25,41.415a3.027,3.027,0,0,0,3.03,3.03H46.97A3.027,3.027,0,0,0,50,41.415a8.084,8.084,0,0,0-8.082-8.082H33.082A8.084,8.084,0,0,0,25,41.415Z" fill="#00bcd4"/>
</svg>
